<svg width="32" height="33" viewBox="0 0 32 33" fill="none" xmlns="http://www.w3.org/2000/svg">
<path d="M22.7708 20.6667H21.3554L20.8538 20.1717C22.6096 18.0817 23.6667 15.3683 23.6667 12.4167C23.6667 5.835 18.4529 0.5 12.0208 0.5C5.58875 0.5 0.375 5.835 0.375 12.4167C0.375 18.9983 5.58875 24.3333 12.0208 24.3333C14.9054 24.3333 17.5571 23.2517 19.5996 21.455L20.0833 21.9683V23.4167L29.0417 32.565L31.7113 29.8333L22.7708 20.6667V20.6667ZM12.0208 20.6667C7.55958 20.6667 3.95833 16.9817 3.95833 12.4167C3.95833 7.85167 7.55958 4.16667 12.0208 4.16667C16.4821 4.16667 20.0833 7.85167 20.0833 12.4167C20.0833 16.9817 16.4821 20.6667 12.0208 20.6667Z" fill="#FFFFFF" fill-opacity="0.87"/>
</svg>
